<svg width="142" height="26" viewBox="0 0 142 26" fill="none" xmlns="http://www.w3.org/2000/svg">
<g clip-path="url(#clip0_728_506)">
<mask id="mask0_728_506" style="mask-type:luminance" maskUnits="userSpaceOnUse" x="0" y="0" width="142" height="26">
<path d="M142 0H0V26H142V0Z" fill="white"/>
</mask>
<g mask="url(#mask0_728_506)">
<mask id="mask1_728_506" style="mask-type:luminance" maskUnits="userSpaceOnUse" x="-1" y="-1" width="28" height="27">
<path d="M26.4832 -0.495117H-0.504395V26.0001H26.4832V-0.495117Z" fill="white"/>
</mask>
<g mask="url(#mask1_728_506)">
<path d="M26.4832 0.0568848H0.0578613V26.0001H26.4832V0.0568848Z" fill="#737373" stroke="white" stroke-width="0.09375"/>
<path d="M9.79191 5.71606L12.9893 12.2559L16.1867 5.71606H18.9369L14.1125 14.6149V20.3409H11.8663V14.6149L7.04175 5.71606H9.79191Z" fill="white"/>
</g>
<path d="M42.0394 18.6954H39.2019V13.9364H35.0123V18.6954H32.1748V7.89352H35.0123V11.8472H39.2019V7.89352H42.0394V18.6954ZM49.7317 16.5699V14.8723C49.3721 14.9013 48.9829 14.9425 48.5642 14.9956C48.1454 15.044 47.8277 15.1021 47.6109 15.1697C47.345 15.252 47.1405 15.3729 46.9977 15.5325C46.8597 15.6872 46.7907 15.8927 46.7907 16.1492C46.7907 16.3184 46.8055 16.4562 46.8351 16.5626C46.8646 16.669 46.9385 16.7706 47.0568 16.8672C47.1701 16.9641 47.3055 17.0366 47.4631 17.0849C47.6208 17.1285 47.8671 17.1503 48.2021 17.1503C48.4681 17.1503 48.7366 17.097 49.0075 16.9906C49.2834 16.8842 49.5248 16.7439 49.7317 16.5699ZM49.7317 17.8321C49.5888 17.9386 49.4114 18.0667 49.1997 18.2166C48.9878 18.3666 48.7883 18.4851 48.6012 18.5721C48.34 18.6881 48.0691 18.7728 47.7882 18.826C47.5075 18.884 47.1996 18.9131 46.8646 18.9131C46.0764 18.9131 45.4164 18.6736 44.8843 18.1949C44.3523 17.7161 44.0863 17.1042 44.0863 16.3595C44.0863 15.7646 44.2217 15.2785 44.4927 14.9013C44.7636 14.5242 45.1479 14.2266 45.6454 14.009C46.138 13.7914 46.7488 13.6367 47.4779 13.5447C48.2071 13.4528 48.9632 13.3851 49.7465 13.3416V13.2981C49.7465 12.8483 49.5592 12.5387 49.1849 12.3695C48.8105 12.1954 48.2588 12.1084 47.5297 12.1084C47.0912 12.1084 46.6232 12.1858 46.1257 12.3405C45.6281 12.4905 45.271 12.6065 45.0543 12.6887H44.8104V10.7228C45.0913 10.6502 45.5469 10.5656 46.1774 10.4689C46.8129 10.3673 47.4484 10.3165 48.0838 10.3165C49.5962 10.3165 50.6874 10.5462 51.3573 11.0057C52.0322 11.4603 52.3697 12.1761 52.3697 13.153V18.6954H49.7317V17.8321ZM59.1382 18.9131C58.414 18.9131 57.7515 18.8284 57.1505 18.6591C56.5544 18.4899 56.0347 18.2287 55.5913 17.8757C55.153 17.5226 54.8131 17.0777 54.5716 16.5409C54.3302 16.0041 54.2095 15.3753 54.2095 14.6546C54.2095 13.8953 54.3377 13.2401 54.5938 12.6887C54.855 12.1374 55.217 11.6803 55.6801 11.3176C56.1283 10.9743 56.6456 10.7228 57.2318 10.5632C57.818 10.4036 58.4264 10.3238 59.0569 10.3238C59.6234 10.3238 60.1457 10.3842 60.6235 10.5051C61.1013 10.626 61.5471 10.7832 61.9609 10.9767V13.2038H61.5841C61.4807 13.1167 61.355 13.0152 61.2072 12.8992C61.0644 12.783 60.8871 12.6694 60.6752 12.5582C60.4732 12.4517 60.2516 12.3647 60.0101 12.297C59.7687 12.2244 59.488 12.1882 59.1678 12.1882C58.4584 12.1882 57.9116 12.4106 57.5274 12.8556C57.148 13.2957 56.9583 13.8953 56.9583 14.6546C56.9583 15.4381 57.1529 16.033 57.5421 16.4392C57.9362 16.8456 58.4929 17.0486 59.2121 17.0486C59.5471 17.0486 59.8475 17.0124 60.1136 16.9398C60.3845 16.8624 60.6087 16.773 60.786 16.6714C60.9535 16.5747 61.1013 16.4732 61.2293 16.3667C61.3574 16.2603 61.4757 16.1563 61.5841 16.0548H61.9609V18.2819C61.5422 18.4754 61.1037 18.6277 60.6457 18.739C60.1924 18.855 59.6899 18.9131 59.1382 18.9131ZM72.535 18.6954H69.4388L67.1112 15.148L66.3871 16.0112V18.6954H63.7269V7.40747H66.3871V14.1469L69.2541 10.5487H72.3207L69.3354 14.0599L72.535 18.6954ZM82.0524 15.1044H75.9635C76.003 15.7428 76.2493 16.2314 76.7025 16.5699C77.1607 16.9084 77.8331 17.0777 78.7198 17.0777C79.2814 17.0777 79.8256 16.9786 80.3528 16.7802C80.8799 16.582 81.2962 16.3692 81.6015 16.1418H81.8971V18.2384C81.2962 18.4754 80.7296 18.647 80.1977 18.7535C79.6656 18.8598 79.0769 18.9131 78.4316 18.9131C76.7666 18.9131 75.4906 18.5455 74.6039 17.8104C73.7172 17.0753 73.2738 16.0282 73.2738 14.6691C73.2738 13.3247 73.6927 12.2607 74.53 11.4772C75.3724 10.6889 76.5251 10.2947 77.9882 10.2947C79.338 10.2947 80.3528 10.6309 81.0326 11.3031C81.7124 11.9705 82.0524 12.933 82.0524 14.1904V15.1044ZM79.407 13.5738C79.3922 13.0273 79.2542 12.6161 78.9932 12.3405C78.732 12.0648 78.3257 11.927 77.774 11.927C77.2616 11.927 76.8404 12.0576 76.5103 12.3187C76.1803 12.5798 75.9956 12.9982 75.9562 13.5738H79.407ZM89.9441 13.037H89.7076C89.5943 12.9982 89.412 12.9692 89.1608 12.9499C88.9096 12.9306 88.7001 12.9208 88.5327 12.9208C88.1534 12.9208 87.8184 12.9451 87.5278 12.9934C87.2371 13.0418 86.9243 13.124 86.5893 13.2401V18.6954H83.9291V10.5487H86.5893V11.7456C87.1756 11.2523 87.6855 10.9259 88.1189 10.7663C88.5525 10.6019 88.9515 10.5196 89.3159 10.5196C89.4095 10.5196 89.5154 10.5221 89.6337 10.5269C89.7519 10.5317 89.8554 10.539 89.9441 10.5487V13.037ZM106.777 18.6954H104.043L99.3727 11.2814V18.6954H96.7717V7.89352H100.163L104.176 14.0815V7.89352H106.777V18.6954ZM117.609 15.1044H111.521C111.56 15.7428 111.806 16.2314 112.26 16.5699C112.718 16.9084 113.39 17.0777 114.277 17.0777C114.838 17.0777 115.383 16.9786 115.91 16.7802C116.437 16.582 116.853 16.3692 117.159 16.1418H117.454V18.2384C116.853 18.4754 116.287 18.647 115.755 18.7535C115.223 18.8598 114.634 18.9131 113.989 18.9131C112.324 18.9131 111.048 18.5455 110.161 17.8104C109.274 17.0753 108.831 16.0282 108.831 14.6691C108.831 13.3247 109.25 12.2607 110.087 11.4772C110.93 10.6889 112.082 10.2947 113.545 10.2947C114.895 10.2947 115.91 10.6309 116.59 11.3031C117.27 11.9705 117.609 12.933 117.609 14.1904V15.1044ZM114.964 13.5738C114.949 13.0273 114.811 12.6161 114.55 12.3405C114.289 12.0648 113.883 11.927 113.331 11.927C112.819 11.927 112.398 12.0576 112.067 12.3187C111.737 12.5798 111.553 12.9982 111.513 13.5738H114.964ZM132.721 10.5487L130.149 18.6954H127.326L125.634 13.2038L123.972 18.6954H121.112L118.563 10.5487H121.356L122.775 16.1636L124.548 10.5487H126.905L128.589 16.1636L129.987 10.5487H132.721ZM141.521 16.1129C141.521 16.9544 141.137 17.6339 140.368 18.1513C139.6 18.664 138.548 18.9203 137.213 18.9203C136.474 18.9203 135.804 18.8527 135.204 18.7172C134.602 18.5818 134.119 18.4318 133.755 18.2674V16.1201H133.998C134.132 16.2119 134.285 16.3136 134.457 16.4248C134.634 16.5312 134.884 16.6472 135.204 16.773C135.479 16.8842 135.792 16.9809 136.142 17.0631C136.491 17.1405 136.866 17.1792 137.265 17.1792C137.787 17.1792 138.174 17.1237 138.425 17.0124C138.676 16.8963 138.802 16.7271 138.802 16.5046C138.802 16.3063 138.727 16.1636 138.58 16.0766C138.432 15.9846 138.151 15.8976 137.737 15.8154C137.541 15.7719 137.272 15.726 136.933 15.6776C136.597 15.6243 136.292 15.5616 136.016 15.489C135.262 15.2955 134.703 14.9956 134.339 14.5894C133.974 14.1784 133.791 13.6681 133.791 13.0587C133.791 12.2752 134.169 11.6247 134.923 11.1072C135.681 10.5849 136.716 10.3238 138.026 10.3238C138.647 10.3238 139.241 10.3866 139.807 10.5124C140.378 10.6333 140.825 10.7639 141.144 10.9041V12.9644H140.915C140.521 12.6983 140.07 12.4832 139.564 12.3187C139.06 12.1495 138.551 12.0648 138.034 12.0648C137.605 12.0648 137.243 12.1229 136.947 12.239C136.657 12.355 136.512 12.5194 136.512 12.7323C136.512 12.9256 136.577 13.0732 136.711 13.1748C136.843 13.2763 137.156 13.3779 137.649 13.4794C137.92 13.5327 138.21 13.5858 138.521 13.639C138.836 13.6874 139.151 13.7503 139.466 13.8277C140.166 14.0066 140.683 14.2895 141.019 14.6764C141.354 15.0585 141.521 15.5373 141.521 16.1129Z" fill="#737373"/>
</g>
</g>
<defs>
<clipPath id="clip0_728_506">
<rect width="142" height="26" fill="white"/>
</clipPath>
</defs>
</svg>
