<svg width="115" height="31" viewBox="0 0 115 31" fill="none" xmlns="http://www.w3.org/2000/svg">
<g clip-path="url(#clip0_679_28)">
<path d="M84.5244 2.82662C84.5244 1.65008 85.515 0.695735 86.7371 0.695735H112.254C113.476 0.695735 114.467 1.65008 114.467 2.82662V28.3117C114.467 29.4887 113.476 30.4426 112.254 30.4426H86.7371C85.515 30.4426 84.5244 29.4887 84.5244 28.3117V2.82662Z" fill="#737373"/>
<path fill-rule="evenodd" clip-rule="evenodd" d="M0.705811 25.6128H13.2016V21.5629H5.2279V6.11131H0.705811V25.6128Z" fill="#737373"/>
<path fill-rule="evenodd" clip-rule="evenodd" d="M19.5282 25.6128V12.1808H15.0057V25.6128H19.5282ZM17.2669 10.3468C18.844 10.3468 19.8256 9.31538 19.8256 8.02556C19.7962 6.70792 18.844 5.70548 17.297 5.70548C15.7498 5.70548 14.7383 6.70792 14.7383 8.02556C14.7383 9.31538 15.7197 10.3468 17.2374 10.3468H17.2669Z" fill="#737373"/>
<path fill-rule="evenodd" clip-rule="evenodd" d="M21.6279 25.6128H26.1505V18.1116C26.1505 17.7101 26.1799 17.3091 26.2995 17.0221C26.6262 16.2204 27.3703 15.3896 28.6197 15.3896C30.2564 15.3896 30.911 16.6218 30.911 18.4264V25.6128H35.4331V17.9109C35.4331 13.785 33.2017 11.8652 30.2263 11.8652C27.7867 11.8652 26.7155 13.2115 26.1203 14.1284H26.1505V12.1808H21.628C21.6874 13.4412 21.6279 25.6128 21.6279 25.6128Z" fill="#737373"/>
<path fill-rule="evenodd" clip-rule="evenodd" d="M41.813 6.11131H37.2903V25.6128H41.813V21.258L42.9432 19.8533L46.4839 25.6128H52.0474L46.0972 17.2749L51.3039 11.6021H45.8593C45.8593 11.6021 42.1403 16.6775 41.813 17.2793V6.11131Z" fill="#737373"/>
<path fill-rule="evenodd" clip-rule="evenodd" d="M64.1418 20.0101C64.2012 19.6651 64.2906 19.0033 64.2906 18.2553C64.2906 14.7829 62.5051 11.2581 57.8045 11.2581C52.7762 11.2581 50.4556 15.1839 50.4556 18.7446C50.4556 23.1486 53.282 25.8992 58.2209 25.8992C60.1847 25.8992 61.9993 25.613 63.4871 25.0112L62.8919 22.0627C61.6722 22.4622 60.4226 22.6617 58.8756 22.6617C56.7632 22.6617 54.9187 21.8059 54.7697 19.9815L64.1418 20.0093V20.0101ZM54.7402 16.9897C54.8591 15.8434 55.6327 14.1525 57.5666 14.1525C59.6191 14.1525 60.0954 15.9582 60.0954 16.9897H54.7402Z" fill="#737373"/>
<path fill-rule="evenodd" clip-rule="evenodd" d="M75.4538 6.11129V12.8621H75.3944C74.7397 11.9173 73.3708 11.2869 71.5564 11.2869C68.0751 11.2869 65.0108 14.0374 65.0402 18.736C65.0402 23.0916 67.8074 25.928 71.2586 25.928C73.1329 25.928 74.918 25.1255 75.8106 23.5781H75.9L76.0785 25.6128H80.0954C80.0358 24.6672 79.9759 23.0339 79.9759 21.4297V6.11129H75.4538ZM75.4538 19.3954C75.4538 19.7388 75.424 20.0831 75.3643 20.3692C75.0969 21.6014 74.0255 22.4608 72.7167 22.4608C70.8422 22.4608 69.6223 20.971 69.6223 18.6215C69.6223 16.4155 70.6639 14.6392 72.7463 14.6392C74.1444 14.6392 75.1264 15.5844 75.3944 16.7589C75.4538 17.0173 75.4538 17.3039 75.4538 17.5615V19.3954Z" fill="#737373"/>
<path fill-rule="evenodd" clip-rule="evenodd" d="M93.6009 25.5969V12.1645H89.0784V25.5969H93.6009ZM91.3396 10.3306C92.9167 10.3306 93.8983 9.29911 93.8983 8.01009C93.8689 6.69205 92.9167 5.68922 91.3695 5.68922C89.8225 5.68922 88.811 6.69205 88.811 8.01009C88.811 9.29911 89.7924 10.3306 91.3101 10.3306H91.3396Z" fill="white"/>
<path fill-rule="evenodd" clip-rule="evenodd" d="M96.1033 25.5969H100.626V18.0957C100.626 17.6943 100.655 17.2932 100.775 17.0062C101.102 16.2041 101.846 15.3734 103.095 15.3734C104.731 15.3734 105.386 16.6052 105.386 18.4109V25.5969H109.908V17.895C109.908 13.7692 107.677 11.8493 104.702 11.8493C102.262 11.8493 101.191 13.1956 100.596 14.1126H100.626V12.1645H96.1034C96.1627 13.4249 96.1033 25.5969 96.1033 25.5969Z" fill="white"/>
</g>
<defs>
<clipPath id="clip0_679_28">
<rect width="115" height="31" fill="white"/>
</clipPath>
</defs>
</svg>
