<svg width="123" height="40" viewBox="0 0 123 40" fill="none" xmlns="http://www.w3.org/2000/svg">
<g clip-path="url(#clip0_679_40)">
<path d="M20.0048 39.8962C30.9363 39.8962 39.798 31.0016 39.798 20.0295C39.798 9.05745 30.9363 0.162842 20.0048 0.162842C9.07337 0.162842 0.21167 9.05745 0.21167 20.0295C0.21167 31.0016 9.07337 39.8962 20.0048 39.8962Z" fill="#737373"/>
<path d="M33.2051 20.0295C33.1461 18.4295 31.8079 17.1802 30.2089 17.2345C29.5004 17.2592 28.8263 17.5505 28.3147 18.0394C26.0613 16.4987 23.4143 15.6542 20.6936 15.595L21.9777 9.39744L26.2138 10.2913C26.3319 11.3826 27.3061 12.1727 28.3934 12.0542C29.4807 11.9357 30.2679 10.9579 30.1498 9.86657C30.0317 8.77522 29.0576 7.98509 27.9703 8.10361C27.3454 8.16781 26.7845 8.53324 26.4746 9.07645L21.6235 8.10361C21.2938 8.02954 20.9642 8.23695 20.8904 8.57275C20.8904 8.57769 20.8904 8.57769 20.8904 8.58262L19.4291 15.4765C16.6739 15.5209 13.9925 16.3703 11.7097 17.9209C10.5485 16.8246 8.71831 16.8789 7.62607 18.0493C6.53383 19.2147 6.58795 21.0518 7.75399 22.1481C7.98031 22.3604 8.24107 22.5431 8.53135 22.6715C8.51167 22.9629 8.51167 23.2542 8.53135 23.5456C8.53135 27.995 13.6973 31.6147 20.0687 31.6147C26.4401 31.6147 31.6061 27.9999 31.6061 23.5456C31.6258 23.2542 31.6258 22.9629 31.6061 22.6715C32.6 22.1727 33.2248 21.1456 33.2051 20.0295ZM13.412 22.0197C13.412 20.9234 14.3025 20.0295 15.3947 20.0295C16.487 20.0295 17.3775 20.9234 17.3775 22.0197C17.3775 23.116 16.487 24.0098 15.3947 24.0098C14.2976 23.9999 13.412 23.116 13.412 22.0197ZM24.91 27.4814C23.5029 28.5431 21.7809 29.0863 20.0195 29.0123C18.2582 29.0863 16.5362 28.5431 15.1291 27.4814C14.9421 27.2542 14.9765 26.9135 15.2029 26.7258C15.3997 26.5629 15.6801 26.5629 15.8818 26.7258C17.0725 27.5999 18.5239 28.0444 19.9999 27.9752C21.4759 28.0542 22.9322 27.6295 24.1376 26.7653C24.3541 26.553 24.7083 26.5579 24.9199 26.7752C25.1314 26.9925 25.1265 27.3481 24.91 27.5604V27.4814ZM24.5558 24.0789C23.4635 24.0789 22.573 23.1851 22.573 22.0888C22.573 20.9925 23.4635 20.0987 24.5558 20.0987C25.648 20.0987 26.5385 20.9925 26.5385 22.0888C26.5828 23.1851 25.7317 24.1086 24.6394 24.153C24.605 24.153 24.5755 24.153 24.541 24.153L24.5558 24.0789Z" fill="white"/>
<path d="M110.641 13.9705C112.13 13.9705 113.337 12.7589 113.337 11.2643C113.337 9.7697 112.13 8.55811 110.641 8.55811C109.152 8.55811 107.945 9.7697 107.945 11.2643C107.945 12.7589 109.152 13.9705 110.641 13.9705Z" fill="#737373"/>
<path d="M72.4322 22.7804C73.4752 22.8545 74.3805 22.0644 74.4592 21.0125C74.4641 20.9533 74.4641 20.8841 74.4641 20.82C74.4494 20.4545 74.4051 20.0841 74.3313 19.7237C73.6917 16.2965 70.7741 13.773 67.3055 13.6348C63.3548 13.6348 60.0535 17.2792 60.0535 21.7533C60.0535 26.2274 63.3007 29.8767 67.3006 29.8767C69.4211 29.9607 71.4777 29.1014 72.9045 27.5261C73.49 26.8842 73.4408 25.8916 72.8012 25.3039C72.752 25.2595 72.7077 25.22 72.6585 25.1854C72.0189 24.7854 71.1874 24.8693 70.6462 25.3928C69.7557 26.2817 68.5601 26.7903 67.3006 26.8298C65.126 26.657 63.3843 24.9483 63.1678 22.7607H72.3731L72.4322 22.7804ZM67.2859 16.6916C69.1997 16.82 70.8086 18.1928 71.2366 20.0743H63.3449C63.7681 18.1879 65.3671 16.815 67.2859 16.6916Z" fill="#737373"/>
<path d="M60.2109 15.2099C60.2109 14.4494 59.65 13.8025 58.8972 13.7087C56.8653 13.3679 54.7989 14.1235 53.4656 15.7037V15.5062C53.4656 14.6617 52.7866 13.9803 51.9453 13.9803C51.104 13.9803 50.425 14.6617 50.425 15.5062V28C50.4053 28.8198 51.0302 29.5161 51.8469 29.5852C52.6784 29.6445 53.4065 29.0124 53.4607 28.1778C53.4656 28.1185 53.4656 28.0593 53.4607 28V21.5901C53.3278 19.0321 55.2811 16.8543 57.8296 16.7161C58.0559 16.7012 58.2872 16.7062 58.5135 16.7309H58.8185C59.6057 16.6617 60.2109 16.0049 60.2109 15.2099Z" fill="#737373"/>
<path d="M112.156 16.8494C112.156 16.005 111.477 15.3235 110.636 15.3235C109.795 15.3235 109.116 16.005 109.116 16.8494V27.9951C109.116 28.8395 109.795 29.521 110.636 29.521C111.477 29.521 112.156 28.8395 112.156 27.9951V16.8494Z" fill="#737373"/>
<path d="M89.7211 8.38036C89.7211 7.54086 89.0421 6.85938 88.2057 6.85938C87.3693 6.85938 86.6904 7.54086 86.6904 8.38036V15.1952C85.667 14.1581 84.2599 13.5952 82.8085 13.6347C78.8577 13.6347 75.5564 17.2791 75.5564 21.7532C75.5564 26.2273 78.8085 29.8767 82.8085 29.8767C84.2845 29.9211 85.7113 29.3532 86.7592 28.3013C86.9954 29.1063 87.8367 29.5655 88.6387 29.3285C89.2438 29.1507 89.6768 28.6174 89.7162 27.9804L89.7211 8.38036ZM82.7986 26.8693C80.4715 26.8693 78.5773 24.5976 78.5773 21.7878C78.5773 18.9779 80.4567 16.7063 82.7986 16.7063C85.1406 16.7063 87.02 18.9779 87.02 21.7878C87.02 24.5976 85.1406 26.8446 82.8085 26.8446L82.7986 26.8693Z" fill="#737373"/>
<path d="M105.573 8.38036C105.573 7.54086 104.894 6.85938 104.058 6.85938C103.222 6.85938 102.543 7.54086 102.543 8.38036V15.1952C101.519 14.1581 100.112 13.5952 98.6608 13.6347C94.71 13.6347 91.4087 17.2791 91.4087 21.7532C91.4087 26.2273 94.6608 29.8767 98.6608 29.8767C100.137 29.9211 101.564 29.3532 102.612 28.3013C102.848 29.1063 103.689 29.5655 104.491 29.3285C105.096 29.1507 105.529 28.6174 105.568 27.9804L105.573 8.38036ZM98.6558 26.8693C96.3287 26.8693 94.4345 24.5976 94.4345 21.7878C94.4345 18.9779 96.3139 16.7063 98.6558 16.7063C100.998 16.7063 102.877 18.9779 102.877 21.7878C102.877 24.5976 100.998 26.8446 98.6657 26.8446L98.6558 26.8693Z" fill="#737373"/>
<path d="M120.033 27.9904V16.6916H121.347C122.075 16.736 122.695 16.178 122.739 15.4521C122.739 15.4274 122.744 15.3978 122.744 15.3681C122.808 14.6422 122.272 14.0002 121.554 13.936C121.514 13.9311 121.47 13.9311 121.431 13.9311H120.038V11.8323C120.048 11.0175 119.428 10.3311 118.616 10.257C117.785 10.1978 117.062 10.8299 117.003 11.6644C116.998 11.699 116.998 11.7385 116.998 11.7731V13.9657H115.679C114.951 13.9212 114.331 14.4792 114.287 15.2052C114.287 15.2299 114.282 15.2595 114.282 15.2891C114.218 16.015 114.754 16.657 115.472 16.7212C115.512 16.7262 115.556 16.7262 115.595 16.7262H116.909V27.9953C116.909 28.8348 117.588 29.5163 118.424 29.5163C119.261 29.5706 119.974 28.9286 120.028 28.0891C120.033 28.0595 120.033 28.0249 120.033 27.9904Z" fill="#737373"/>
</g>
<defs>
<clipPath id="clip0_679_40">
<rect width="123" height="40" fill="white"/>
</clipPath>
</defs>
</svg>
