<svg width="683" height="683" viewBox="0 0 683 683" fill="none" xmlns="http://www.w3.org/2000/svg">
<g clip-path="url(#clip0_90_36)">
<path d="M188.667 1.59998C182.533 4.93331 182.667 2.80001 182.667 88.9333V170.667H95.2H7.73333L3.86667 174.533L0 178.4V386C0 541.2 0.4 594.267 1.6 596.4C4.4 601.867 6.8 602.533 21.0667 602.667H34.6667V638.533C34.6667 658.267 35.0667 675.467 35.4667 676.667C37.8667 682.933 23.4667 682.667 341.333 682.667C659.2 682.667 644.8 682.933 647.2 676.667C647.6 675.467 648 658.267 648 638.533V602.667H661.733C675.867 602.533 678.267 601.867 681.067 596.4C682.267 594.267 682.667 541.2 682.667 386V178.4L678.8 174.533L674.933 170.667H587.467H500V89.4667C500 44.8 499.6 7.2 499.2 6C496.8 -0.133334 500.4 0 341.067 0C235.2 0.133333 190.533 0.533309 188.667 1.59998ZM477.333 233.733V444.8L468.4 444.267C458 443.733 447.867 446.8 438.8 453.467C432.533 457.867 425.333 468.667 422.933 476.8C419.333 489.2 422.267 505.467 429.867 515.867L433.2 520.267L425.6 525.867C421.467 529.067 416.4 533.6 414.267 536.133L410.667 540.667L408.267 537.467C400.533 526.533 389.333 515.867 380.267 510.8C378.533 509.867 379.067 508.533 383.733 503.333C386.8 499.867 390.933 493.6 392.933 489.467C396.4 482.533 396.667 480.8 396.667 466C396.667 451.067 396.4 449.467 392.8 442.267C373.467 403.333 321.867 398.133 295.733 432.667C287.867 443.067 284.933 453.6 285.6 469.067C286.267 484.133 289.6 492.8 298.933 503.333C303.6 508.533 304.133 509.867 302.4 510.8C293.333 515.867 282.133 526.533 274.4 537.467L272 540.667L268.4 536.133C266.267 533.6 261.2 528.933 257.067 525.867L249.467 520.267L251.867 517.2C261.2 505.2 264 487.067 258.667 473.067C254.933 463.067 245.867 453.067 236.267 448.4C229.733 445.2 227.067 444.667 217.067 444.667H205.333V233.6V22.6667H341.333H477.333V233.733ZM182.4 325.867L182.667 457.733L178.533 464.133C168.267 480.267 168.267 499.733 178.8 514.533C182.8 520.133 182.8 520.667 180.533 522C170.267 527.733 155.2 546.667 151.867 558C150.933 561.333 149.733 564 149.333 564C148.933 564 146.4 562.4 143.867 560.533C141.333 558.667 138.4 556.667 137.333 556C135.733 555.067 136 554 139.067 549.733C145.333 540.667 147.2 534.667 147.2 523.333C147.2 514.533 146.667 511.333 143.733 505.2C130.133 475.733 93.4667 468.8 70.5333 491.2C55.2 506.133 52.9333 532 65.3333 549.2L69.3333 554.533L63.6 558.533C57.4667 562.667 47.8667 572.533 45.4667 577.2C44.1333 579.733 42.8 580 33.3333 580H22.6667V386.667V193.333L102.4 193.6L182 194L182.4 325.867ZM660 386.667V580H649.333C639.867 580 638.533 579.733 637.2 577.2C634.8 572.533 625.2 562.667 619.067 558.533L613.333 554.533L617.333 549.067C629.333 532.533 627.6 508 613.467 492.933C590.8 468.667 552.933 474.933 538.933 505.2C536 511.333 535.467 514.533 535.467 523.333C535.467 534.667 537.333 540.667 543.6 549.733C546.667 554 546.933 555.067 545.333 556C544.267 556.667 541.333 558.667 538.8 560.533C536.267 562.4 533.733 564 533.333 564C532.933 564 531.733 561.333 530.8 558C527.467 546.667 512.4 527.733 502.133 522C499.867 520.667 499.867 520.133 503.867 514.533C514.267 499.733 514.4 479.467 504 464L500 458V326.533C500 254.267 500.4 194.667 500.933 194.267C501.333 193.733 537.333 193.333 580.933 193.333H660V386.667ZM354.533 435.467C367.067 440.667 374.933 452.533 374.933 466.4C374.933 475.867 372.133 483.067 365.6 489.867C358.667 497.067 351.733 500 341.333 500C330.933 500 324 497.067 317.067 489.867C310.533 483.067 307.733 475.867 307.733 466.267C307.733 442.133 332 426.267 354.533 435.467ZM226.667 469.6C242.4 477.6 242.4 500.667 226.667 508.933C216.667 514.267 206.8 512.4 199.067 503.6C191.6 495.067 191.6 483.6 199.067 475.067C206.8 466.267 216.4 464.4 226.667 469.6ZM475.067 468.533C480.933 470.933 487.733 478.933 488.8 484.667C491.333 498.533 480.267 512 466.267 512C454.8 512 444 500.667 444 488.8C444.133 473.467 460.8 462.533 475.067 468.533ZM115.867 505.2C120.8 508.8 125.2 517.333 125.333 523.333C125.333 528.667 120.267 538.533 115.867 541.733C108.533 547.067 96.6667 547.067 89.4667 541.733C82.6667 536.533 80.6667 532.4 80.6667 523.333C80.6667 513.867 82.9333 509.6 90.8 504.267C96.9333 500 109.2 500.533 115.867 505.2ZM592 504.267C598 508.4 601.2 513.067 602.133 518.933C604.533 533.6 594.667 545.6 580 545.6C561.733 545.6 551.333 525.733 561.733 510.667C568 501.333 583.067 498.267 592 504.267ZM358.933 526.533C379.867 533.733 394.267 550.933 397.333 572.667C398 577.733 398.667 599.6 398.667 620.933V660H341.333H284V620.933C284 599.6 284.667 577.733 285.333 572.667C288.4 551.2 302.667 534 323.2 526.667C332.667 523.2 349.333 523.2 358.933 526.533ZM227.867 536.667C241.6 540.267 252.533 550 258.267 563.867C261.2 571.067 261.333 572.533 261.333 615.6V660H216H170.667V617.6C170.667 566.533 171.467 562.4 183.2 549.467C188.933 543.333 196.133 538.933 204.4 536.667C213.467 534.267 219.067 534.267 227.867 536.667ZM477.733 536.667C493.733 540.8 505.067 552 509.867 568C511.6 573.867 512 582.8 512 617.6V660H466.667H421.333V615.6C421.333 572.533 421.467 571.067 424.4 563.867C430.133 550 441.467 539.867 454.933 536.533C464.4 534.267 468.8 534.267 477.733 536.667ZM121.6 573.6C125.733 575.467 131.6 579.6 134.667 582.8C146 594.533 148 602.133 148 634.933V660H102.667H57.3333V633.6C57.3333 603.733 58.4 598 66 587.733C71.2 580.667 80.5333 573.733 88.5333 571.2C97.3333 568.267 112.667 569.467 121.6 573.6ZM599.333 573.333C607.867 577.467 617.2 586.8 621.333 595.333C624.533 601.733 624.667 603.333 625.067 630.933L625.467 660H580.133H534.667V634.933C534.667 604.267 536.267 596.667 545.2 585.733C550.267 579.6 555.333 576 563.867 572.4C573.867 568.133 589.467 568.533 599.333 573.333Z" fill="#9AD1FE"/>
<path d="M268.267 46.6667C261.867 49.3334 261.333 53.7334 261.333 102.533C261.333 148.4 261.733 153.333 266.4 156.8C269.733 159.333 412.933 159.333 416.267 156.8C420.933 153.333 421.333 148.4 421.333 102.533C421.333 53.0667 420.8 49.2001 414 46.6667C409.467 44.9334 272.533 45.0667 268.267 46.6667ZM398.667 102V136H341.333H284V102V68.0001H341.333H398.667V102Z" fill="#F9C784"/>
<path d="M284.267 193.6L284.667 204.667L295.733 205.067L306.667 205.467V194V182.667H295.333H283.867L284.267 193.6Z" fill="#F9C784"/>
<path d="M329.6 193.6L330 204.667H341.333H352.667L353.067 193.6L353.467 182.667H341.333H329.2L329.6 193.6Z" fill="#F9C784"/>
<path d="M376 194V205.467L387.067 205.067L398 204.667L398.4 193.6L398.8 182.667H387.333H376V194Z" fill="#F9C784"/>
<path d="M238.667 239.333V250.667H250H261.333V239.333V228H250H238.667V239.333Z" fill="#F9C784"/>
<path d="M284.267 238.933L284.667 250L295.733 250.4L306.667 250.8V239.333V228H295.333H283.867L284.267 238.933Z" fill="#F9C784"/>
<path d="M329.6 238.933L330 250H341.333H352.667L353.067 238.933L353.467 228H341.333H329.2L329.6 238.933Z" fill="#F9C784"/>
<path d="M376 239.333V250.8L387.067 250.4L398 250L398.4 238.933L398.8 228H387.333H376V239.333Z" fill="#F9C784"/>
<path d="M421.333 239.333V250.667H432.667H444V239.333V228H432.667H421.333V239.333Z" fill="#F9C784"/>
<path d="M238.667 284.667V296H250H261.333V284.667V273.333H250H238.667V284.667Z" fill="#F9C784"/>
<path d="M284 284.667V296H295.333H306.667V284.667V273.333H295.333H284V284.667Z" fill="#F9C784"/>
<path d="M329.6 284.267L330 295.333H341.333H352.667L353.067 284.267L353.467 273.333H341.333H329.2L329.6 284.267Z" fill="#F9C784"/>
<path d="M376 284.667V296H387.333H398.667V284.667V273.333H387.333H376V284.667Z" fill="#F9C784"/>
<path d="M421.333 284.667V296H432.667H444V284.667V273.333H432.667H421.333V284.667Z" fill="#F9C784"/>
<path d="M238.667 330V341.333H250H261.333V330V318.667H250H238.667V330Z" fill="#F9C784"/>
<path d="M284 330V341.333H295.333H306.667V330V318.667H295.333H284V330Z" fill="#F9C784"/>
<path d="M329.333 330V341.333H341.333H353.333V330V318.667H341.333H329.333V330Z" fill="#F9C784"/>
<path d="M376 330V341.333H387.333H398.667V330V318.667H387.333H376V330Z" fill="#F9C784"/>
<path d="M421.333 330V341.333H432.667H444V330V318.667H432.667H421.333V330Z" fill="#F9C784"/>
<path d="M238.667 375.333V386.667H250H261.333V375.333V364H250H238.667V375.333Z" fill="#F9C784"/>
<path d="M284 375.333V386.667H295.333H306.667V375.333V364H295.333H284V375.333Z" fill="#F9C784"/>
<path d="M330.267 364.8C329.733 365.333 329.333 370.533 329.333 376.267V386.667H341.333H353.467L353.067 375.6L352.667 364.667L342 364.267C336 364.133 330.8 364.267 330.267 364.8Z" fill="#F9C784"/>
<path d="M376 375.333V386.667H387.333H398.667V375.333V364H387.333H376V375.333Z" fill="#F9C784"/>
<path d="M421.333 375.333V386.667H432.667H444V375.333V364H432.667H421.333V375.333Z" fill="#F9C784"/>
<path d="M57.3334 352.667V444H68.6667H80V352.667V261.333H68.6667H57.3334V352.667Z" fill="#F9C784"/>
<path d="M125.333 352.667V444H136.667H148V352.667V261.333H136.667H125.333V352.667Z" fill="#F9C784"/>
<path d="M534.667 352.667V444H546H557.333V352.667V261.333H546H534.667V352.667Z" fill="#F9C784"/>
<path d="M602.667 352.667V444H614H625.333V352.667V261.333H614H602.667V352.667Z" fill="#F9C784"/>
</g>
<defs>
<clipPath id="clip0_90_36">
<rect width="682.667" height="682.667" fill="white"/>
</clipPath>
</defs>
</svg>
