<svg width="50" height="50" viewBox="0 0 50 50" fill="none" xmlns="http://www.w3.org/2000/svg">
    <g clip-path="url(#clip0_241_40)">
        <path fill-rule="evenodd" clip-rule="evenodd"
            d="M0 52.2988V6.51524C0 2.93157 3.08034 0 6.84749 0H36.4276C40.1948 0 43.2743 2.93157 43.2743 6.51524V52.2988C43.2743 55.8824 40.1948 58.814 36.4268 58.814L6.84749 58.8107C3.08282 58.8107 0 55.8791 0 52.2988ZM62.6712 30.4389C64.4052 27.2585 63.0911 23.3071 59.7455 21.6541L45.8852 14.8132V52.2963C45.8852 57.2519 41.6337 61.2968 36.4235 61.2968L6.84749 61.3009C6.45656 61.3009 6.07224 61.2778 5.69453 61.2332L31.2745 73.8595C34.6184 75.5092 38.7707 74.2562 40.5072 71.0759L62.6712 30.4389Z"
            fill="url(#paint0_linear_241_40)" />
        <path
            d="M88.4372 43.8257H84.7988L85.4604 48.8699H90.1737C92.2961 48.8699 93.8948 48.3806 94.9698 47.4021C96.0447 46.4236 96.5822 44.8456 96.5822 42.6681V23.0291H86.2873V28.1145H90.4218V42.5854C90.4218 43.1091 90.2564 43.4467 89.9256 43.5983C89.5949 43.7499 89.0987 43.8257 88.4372 43.8257ZM109.565 48.3324C110.998 49.0215 112.969 49.366 115.477 49.366C117.958 49.366 119.915 49.0215 121.348 48.3324C122.781 47.6433 123.815 46.5201 124.449 44.9627C125.083 43.4054 125.4 41.2623 125.4 38.5335C125.4 35.7772 125.083 33.6204 124.449 32.063C123.815 30.5057 122.788 29.3894 121.369 28.7141C119.949 28.0387 117.985 27.7011 115.477 27.7011C112.969 27.7011 110.998 28.0456 109.565 28.7347C108.131 29.4238 107.098 30.547 106.464 32.1044C105.83 33.6617 105.513 35.8048 105.513 38.5335C105.513 41.2623 105.83 43.4054 106.464 44.9627C107.098 46.5201 108.131 47.6433 109.565 48.3324ZM117.089 44.6113H112.087V33.5308C112.087 33.1173 112.218 32.8348 112.479 32.6832C112.741 32.5316 113.217 32.4558 113.906 32.4558H118.867V43.5363C118.867 43.9498 118.743 44.2323 118.495 44.3839C118.247 44.5355 117.779 44.6113 117.089 44.6113ZM150.31 28.6107C149.139 27.9216 147.52 27.5771 145.452 27.5771C143.302 27.5771 141.649 27.8665 140.491 28.4453V21.1272L134.33 21.6647V47.9189C135.957 48.4426 137.535 48.8147 139.064 49.0352C140.594 49.2557 142.31 49.366 144.212 49.366H144.253C146.624 49.366 148.484 49.0283 149.835 48.353C151.186 47.6777 152.157 46.5614 152.75 45.0041C153.342 43.4467 153.639 41.2899 153.639 38.5335C153.639 35.7496 153.377 33.5721 152.853 32.001C152.329 30.4299 151.482 29.2998 150.31 28.6107ZM147.023 32.3318V43.619C147.023 44.0049 146.899 44.2668 146.651 44.4046C146.403 44.5424 145.948 44.6113 145.287 44.6113H140.491V33.4481C140.491 33.0071 140.615 32.7108 140.863 32.5592C141.111 32.4076 141.58 32.3318 142.269 32.3318H147.023ZM183.738 44.3219C180.844 44.3219 178.087 43.936 175.469 43.1642L174.601 48.2497C177.467 49.0766 180.651 49.49 184.151 49.49C186.632 49.49 188.617 49.2144 190.105 48.6631C191.594 48.1119 192.682 47.2367 193.371 46.0377C194.061 44.8387 194.405 43.2469 194.405 41.2623C194.405 39.4431 194.116 37.9754 193.537 36.8591C192.958 35.7427 192.014 34.8952 190.705 34.3163C189.395 33.7375 187.624 33.3516 185.392 33.1587L181.588 32.8692V27.8251C182.525 27.6873 183.697 27.6184 185.102 27.6184C186.398 27.6184 187.583 27.6666 188.658 27.7631C189.733 27.8596 190.932 28.0456 192.255 28.3213L193.041 23.4012C190.064 22.7397 187.046 22.4089 183.986 22.4089C181.726 22.4089 179.948 22.6914 178.653 23.2565C177.357 23.8215 176.413 24.7242 175.82 25.9646C175.228 27.2049 174.931 28.9001 174.931 31.0501C174.931 32.8692 175.207 34.2957 175.758 35.3293C176.31 36.3629 177.226 37.1416 178.508 37.6653C179.79 38.189 181.602 38.5473 183.945 38.7403L187.748 39.071V44.0738C186.481 44.2392 185.144 44.3219 183.738 44.3219ZM230.706 28.1972H224.67L221.652 43.5363H221.238L218.055 28.1972H212.721L209.537 43.5363H209.124L206.106 28.1972H200.069L204.576 48.8699H212.845L215.408 37.2105L217.931 48.8699H226.2L230.706 28.1972ZM244.061 28.0319L237.9 28.8588V48.8699H244.061V28.0319ZM238.293 24.8069C238.775 25.2755 239.692 25.5098 241.043 25.5098C242.366 25.5098 243.261 25.2755 243.73 24.8069C244.199 24.3383 244.433 23.4425 244.433 22.1195C244.433 20.7689 244.192 19.8524 243.709 19.37C243.227 18.8877 242.338 18.6465 241.043 18.6465C239.692 18.6465 238.775 18.8877 238.293 19.37C237.811 19.8524 237.57 20.7689 237.57 22.1195C237.57 23.4425 237.811 24.3383 238.293 24.8069ZM270.026 28.7141C268.84 28.0387 267.214 27.7011 265.147 27.7011C263.41 27.7011 261.991 27.8871 260.888 28.2593C259.786 28.6314 258.904 29.2446 258.242 30.0991L257.002 28.1972H254.025V55.9399L260.185 55.4024V48.6218C261.343 49.2006 262.997 49.49 265.147 49.49C267.214 49.49 268.833 49.1455 270.005 48.4564C271.176 47.7673 272.024 46.6303 272.548 45.0454C273.071 43.4605 273.333 41.2899 273.333 38.5335C273.333 35.7772 273.078 33.6204 272.568 32.063C272.058 30.5057 271.211 29.3894 270.026 28.7141ZM266.718 32.4558V43.619C266.718 44.06 266.601 44.3563 266.366 44.5079C266.132 44.6595 265.67 44.7353 264.981 44.7353H260.185V33.4481C260.185 33.0622 260.309 32.8003 260.557 32.6625C260.806 32.5247 261.274 32.4558 261.963 32.4558H266.718ZM298.678 43.743C295.949 44.4321 293.537 44.7767 291.442 44.7767C289.844 44.7767 288.617 44.6664 287.763 44.4459V40.9729C291.153 40.9729 293.703 40.7869 295.412 40.4148C297.12 40.0426 298.313 39.388 298.988 38.4509C299.663 37.5137 300.001 36.1217 300.001 34.275C300.001 32.5385 299.732 31.2017 299.195 30.2645C298.657 29.3273 297.748 28.6658 296.466 28.2799C295.184 27.894 293.358 27.7011 290.988 27.7011C288.59 27.7011 286.681 28.0594 285.261 28.7761C283.842 29.4927 282.808 30.6366 282.16 32.2077C281.513 33.7788 281.189 35.8875 281.189 38.5335C281.189 41.2348 281.499 43.3709 282.119 44.9421C282.739 46.5132 283.731 47.6433 285.096 48.3324C286.46 49.0215 288.314 49.366 290.657 49.366C294.02 49.366 296.955 48.925 299.463 48.043L298.678 43.743ZM288.424 32.7659C288.865 32.4765 289.692 32.3318 290.905 32.3318H294.461V35.5153C294.461 36.3147 294.233 36.8591 293.778 37.1485C293.324 37.4379 292.49 37.5826 291.277 37.5826H287.763V34.3577C287.763 33.5859 287.983 33.0553 288.424 32.7659Z"
            fill="#0A0A0A" />
    </g>
    <defs>
        <linearGradient id="paint0_linear_241_40" x1="-2.78763" y1="71.7992" x2="66.2239"
            y2="2.78763" gradientUnits="userSpaceOnUse">
            <stop offset="0.05" stop-color="#9AD1FE" />
            <stop offset="0.95" stop-color="#1C97FD" />
        </linearGradient>
        <clipPath id="clip0_241_40">
            <rect width="300" height="74.5868" fill="white" />
        </clipPath>
    </defs>
</svg>