<svg width="311" height="366" viewBox="0 0 311 366" fill="none" xmlns="http://www.w3.org/2000/svg">
<path fill-rule="evenodd" clip-rule="evenodd" d="M0 256.632V31.9705C0 14.3853 15.1015 0 33.5702 0H178.589C197.057 0 212.155 14.3853 212.155 31.9705V256.632C212.155 274.217 197.057 288.602 178.584 288.602L33.5702 288.586C15.1137 288.586 0 274.201 0 256.632ZM307.249 149.365C315.75 133.759 309.308 114.369 292.905 106.257L224.955 72.689V256.62C224.955 280.937 204.112 300.785 178.568 300.785L33.5702 300.806C31.6536 300.806 29.7695 300.692 27.9178 300.473L153.325 362.431C169.719 370.526 190.076 364.378 198.589 348.772L307.249 149.365Z" fill="url(#paint0_linear_242_46)"/>
<defs>
<linearGradient id="paint0_linear_242_46" x1="-13.6665" y1="352.321" x2="324.975" y2="13.9881" gradientUnits="userSpaceOnUse">
<stop offset="0.05" stop-color="#9AD1FE"/>
<stop offset="0.95" stop-color="#1C97FD"/>
</linearGradient>
</defs>
</svg>
