<svg width="683" height="684" viewBox="0 0 683 684" fill="none" xmlns="http://www.w3.org/2000/svg">
<path d="M330.667 53.8334V75.1667H341.333H352V53.8334V32.5001H341.333H330.667V53.8334Z" fill="#F9C784"/>
<path d="M258.267 66.9L250.667 74.5L265.733 89.5667L280.667 104.5L288.4 96.7667L296 89.1667L280.933 74.1L266 59.1667L258.267 66.9Z" fill="#F9C784"/>
<path d="M401.6 74.2333L386.667 89.1667L394.4 96.9L402 104.5L417.067 89.4333L432 74.5L424.267 66.7667L416.667 59.1667L401.6 74.2333Z" fill="#F9C784"/>
<path d="M195.333 142.5L192 145.7V224.233C192 306.767 191.867 305.033 197.867 308.233C200.133 309.3 197.333 311.167 178.933 320.367C157.6 331.033 157.2 331.167 147.2 331.167H137.067L142 325.7C169.6 295.033 147.867 245.833 106.667 245.833C85.2 245.833 66.5333 260.1 60.5333 281.033C56.2667 296.233 60.4 313.567 71.2 325.433L76 330.767L64.2667 331.433C45.6 332.5 32.9333 340.5 25.3333 355.833L22 362.5L21.6 428.9L21.2 495.167L24.5333 498.5C27.6 501.567 28.8 501.833 40.6666 501.833H53.3333V573.167V644.633L56.6666 647.833L59.8666 651.167H106.4C150.267 651.167 153.2 651.033 156.133 648.633L159.333 646.1L160 519.033L160.667 391.967L190 376.633C215.467 363.433 224.133 357.833 255.333 335.567L291.333 309.833H341.333H391.333L427.2 335.567C458.533 357.967 466.8 363.167 492.533 376.5L522 391.833L522.667 518.9L523.333 646.1L526.533 648.633C529.467 651.033 532.4 651.167 576.267 651.167H622.8L626 647.833L629.333 644.633V573.167V501.833H642C653.867 501.833 655.067 501.567 658.133 498.5L661.467 495.167L661.067 428.9L660.667 362.5L656.133 354.1C648 339.167 636.933 332.5 618.4 331.433L606.667 330.767L611.467 325.433C638.933 295.033 617.067 245.833 576 245.833C554.533 245.833 535.867 260.1 529.867 281.033C525.6 296.233 529.733 313.567 540.667 325.7L545.6 331.167H535.467C525.467 331.167 525.067 331.033 503.733 320.367C485.067 311.033 482.533 309.3 484.8 308.1C490.667 304.9 490.533 306.233 490.667 224.1V145.7L487.333 142.5L484.133 139.167H341.333H198.533L195.333 142.5ZM330.667 183.833C330.667 206.9 330.667 207.3 334 210.5C337.067 213.7 338.133 213.833 352 213.833C365.867 213.833 366.933 213.967 370 217.167C372.133 219.167 373.333 221.967 373.333 224.5C373.333 227.033 372.133 229.833 370 231.833C366.933 235.033 365.867 235.167 352 235.167C338.133 235.167 337.067 235.3 334 238.5C330.667 241.7 330.667 242.1 330.667 265.167V288.5H272H213.333V224.5V160.5H272H330.667V183.833ZM469.333 224.5V288.5H410.667H352V272.5V256.5H359.467C363.6 256.5 369.467 255.833 372.533 254.9C379.867 252.767 390.933 241.7 393.067 234.367C396.8 221.833 394.133 211.833 384.667 202.5C377.2 194.9 371.067 192.5 359.467 192.5H352V176.5V160.5H410.667H469.333V224.5ZM119.2 270.5C139.733 280.233 136.4 312.9 114.267 319.033C93.7333 324.9 75.7333 306.9 81.3333 286.1C83.0667 279.3 91.3333 270.5 97.6 268.633C103.733 266.767 113.067 267.567 119.2 270.5ZM588.533 270.5C609.067 280.233 605.733 312.9 583.6 319.033C563.067 324.9 545.067 306.9 550.667 286.1C552.4 279.3 560.667 270.5 566.933 268.633C573.067 266.767 582.4 267.567 588.533 270.5ZM253.333 310.367C253.333 310.633 243.2 318.1 230.8 327.033C213.067 339.7 201.333 346.767 175.733 359.967C158 369.167 142.267 377.967 141.067 379.433C138.8 381.967 138.667 389.967 138.667 505.967V629.833H128H117.333V555.167V480.5H106.667H96V555.167V629.833H85.3333H74.6667V507.167V384.5H64H53.3333V432.5V480.5H48H42.5333L42.9333 423.3C43.3333 367.833 43.4666 365.967 46.1333 362.367C47.6 360.367 50.5333 357.433 52.5333 355.967C56 353.3 58.2667 353.167 110.4 352.5L164.667 351.833L187.333 340.233C199.867 333.833 216.267 324.367 224 319.3C237.333 310.367 238.4 309.833 245.733 309.833C249.867 309.833 253.333 310.1 253.333 310.367ZM458.667 319.3C466.4 324.367 482.933 333.833 495.333 340.233L518 351.833L572.267 352.5C624.4 353.167 626.667 353.3 630.133 355.967C632.133 357.433 635.067 360.367 636.533 362.367C639.2 365.967 639.333 367.833 639.733 423.3L640.133 480.5H634.667H629.333V432.5V384.5H618.667H608V507.167V629.833H597.333H586.667V555.167V480.5H576H565.333V555.167V629.833H554.667H544V505.967C544 389.967 543.867 381.967 541.733 379.433C540.4 377.967 524.8 369.167 507.067 359.967C482 347.033 469.6 339.567 452 327.033C439.6 318.233 429.333 310.767 429.333 310.367C429.333 310.1 432.8 309.833 437.067 309.833C444.267 309.833 445.333 310.367 458.667 319.3Z" fill="#9AD1FE"/>
</svg>
