<svg width="683" height="684" viewBox="0 0 683 684" fill="none" xmlns="http://www.w3.org/2000/svg">
<path d="M443.333 78.6333C406.267 84.3667 369.333 99.7 340.667 121.167L327.6 130.9L272.267 146.633L216.933 162.5L170.267 211.833C144.533 238.9 121.733 263.033 119.6 265.433C114.667 270.633 114.267 276.5 118.533 281.033C121.333 283.967 122 284.1 155.067 285.033L188.667 285.833L192.4 290.1C194.4 292.5 195.867 295.033 195.6 295.7C195.333 296.367 189.2 299.433 182 302.633C164.267 310.367 160.8 314.5 164.533 323.3C165.333 325.167 163.333 325.967 152.4 328.5C130.267 333.433 105.467 344.5 89.7333 356.5C82 362.233 79.4667 366.9 81.2 371.7C83.3333 377.033 87.7333 378.9 102.667 380.5C110.4 381.433 116.8 382.367 117.067 382.5C117.333 382.767 110.933 392.9 102.8 405.033C93.6 418.767 88 428.367 88 430.5C88 434.9 93.6 440.5 97.8667 440.5C99.6 440.5 111.733 436.767 124.667 432.367C137.6 427.833 148.4 424.5 148.8 424.9C149.2 425.3 148.8 430.367 148 436.1C145.6 454.233 145.733 456.5 149.867 460.1C155.867 465.167 159.733 464.233 170.533 454.767C186.933 440.5 203.467 418.9 212.533 399.433C216 392.233 216.8 391.433 218.533 393.033C225.733 399.167 230.267 397.033 241.6 382.633C246.8 375.967 251.467 369.967 252 369.433C252.533 368.767 254.8 370.633 257.067 373.433L261.2 378.633L253.867 408.633C250 425.033 246.667 440.5 246.667 442.767C246.667 448.5 250.667 452.5 256.4 452.5C259.467 452.5 277.6 443.167 323.867 417.433L387.067 382.233L416.533 332.233L446 282.1L456.133 273.967C487.867 248.767 516 209.567 529.2 172.1C534.933 155.833 536.933 147.7 542.667 116.633C548.133 87.7 548 84.9 542.4 81.4333C535.467 77.0333 466.133 75.0333 443.333 78.6333ZM522.8 100.1C524.133 101.433 518.667 131.567 513.867 149.7C501.333 196.367 470.133 239.833 429.6 267.033C421.6 272.5 283.733 357.167 277.867 360.233C275.2 361.7 272.8 358.9 242.533 319.833C224.667 296.633 209.867 277.3 209.6 276.633C209.067 275.033 330.8 156.633 345.467 144.633C372.533 122.1 407.067 106.5 445.333 99.7C456.4 97.7 520.8 98.1 522.8 100.1ZM275.867 180.9C265.733 190.633 242.267 213.3 223.6 231.433L189.733 264.5L177.2 264.367C170.267 264.367 161.733 263.833 158 263.433L151.333 262.5L177.333 235.167C191.467 220.1 208.8 201.967 215.733 194.633L228.4 181.567L259.867 172.367C277.2 167.433 292 163.3 292.667 163.3C293.467 163.3 285.867 171.167 275.867 180.9ZM388.667 337.433L371.6 366.5L322.933 393.567C296.133 408.367 274 420.233 273.733 420.1C273.467 419.833 275.2 411.3 277.6 401.3L282 382.9L340.133 347.433C372 327.833 399.6 310.9 401.467 309.7C403.2 308.5 404.933 307.7 405.2 307.967C405.467 308.233 398 321.433 388.667 337.433ZM225.067 331.833C232.533 341.567 238.667 350.1 238.667 350.767C238.667 351.3 235.867 355.3 232.533 359.7C225.2 369.033 227.867 370.767 206.133 342.5L190.667 322.5L199.6 318.233C204.667 315.833 209.333 313.967 210 313.967C210.8 313.967 217.467 321.967 225.067 331.833ZM191.733 358.5L201.333 371.033L198.667 377.7C192.4 393.833 179.067 416.5 173.067 421.567C171.333 422.9 171.333 421.967 172.267 415.167C173.733 403.433 170.8 397.7 163.067 397.567C161.067 397.567 152.267 399.967 143.6 403.033C134.8 406.1 127.467 408.367 127.067 407.967C126.667 407.7 130.933 400.633 136.533 392.367C151.333 370.633 150.133 365.033 130 362.5C122.533 361.567 122.267 361.433 125.333 359.833C132.133 356.367 152.933 349.7 162.667 347.833C181.333 344.5 180.667 344.233 191.733 358.5Z" fill="#9AD1FE"/>
<path d="M374.667 157.033C358.933 160.367 344.533 171.833 337.733 186.367C334.4 193.567 334 195.967 334 207.833C334 219.567 334.4 222.1 337.6 228.9C347.6 250.367 370.667 262.767 393.467 259.033C430 253.167 448.933 211.433 429.067 180.233C421.2 167.833 408.533 159.3 394 156.633C384.8 154.9 384.133 154.9 374.667 157.033ZM391.733 177.967C418.933 183.7 424.533 221.167 400.4 234.1C392 238.5 386.667 239.433 378.667 237.7C359.333 233.567 349.333 212.767 357.867 194.367C361.467 186.633 367.867 181.033 376.267 178.5C383.467 176.233 383.867 176.233 391.733 177.967Z" fill="#9AD1FE"/>
<path d="M430 366.5C426 370.367 425.733 376.367 429.2 380.633C431.333 383.433 433.333 383.967 442.4 384.5L452.933 385.167L440.8 395.967C387.067 443.7 325.067 478.233 257.733 497.833C239.6 503.167 208.8 509.967 194.8 511.833C182.267 513.567 177.067 523.033 184.667 530.5C188.667 534.633 190.267 534.633 212.267 530.5C304.8 513.433 388.4 472.233 457.733 409.433L469.333 398.9V409.833C469.333 419.567 469.733 420.9 472.667 423.833C476.933 428.233 483.067 428.233 487.333 423.833C490.667 420.633 490.667 420.367 490.667 395.167C490.667 360.9 492.933 363.167 458.667 363.167C433.467 363.167 433.2 363.167 430 366.5Z" fill="#F9C784"/>
<path d="M430 483.833L426.667 487.033V563.833V640.5H405.333H384V590.5V540.367L380.667 537.167L377.467 533.833H336H294.533L291.333 537.167L288 540.367V590.5V640.5H266.667H245.333V606.5V572.367L242 569.167L238.8 565.833H197.333H155.867L152.667 569.167L149.333 572.367V606.5V640.5H126C102.933 640.5 102.533 640.5 99.3333 643.833C94.9333 648.1 94.9333 654.233 99.3333 658.5L102.533 661.833H341.333H580.133L583.333 658.5C587.733 654.233 587.733 648.1 583.333 643.833C580.133 640.5 580.133 640.5 551.333 640.5H522.667V563.833V487.033L519.333 483.833L516.133 480.5H474.667H433.2L430 483.833ZM501.333 571.167V640.5H474.667H448V571.167V501.833H474.667H501.333V571.167ZM362.667 597.833V640.5H336H309.333V597.833V555.167H336H362.667V597.833ZM224 613.833V640.5H197.333H170.667V613.833V587.167H197.333H224V613.833Z" fill="#F9C784"/>
</svg>
